<svg width="12" height="10" viewBox="0 0 12 10" fill="none" xmlns="http://www.w3.org/2000/svg">
<path fill-rule="evenodd" clip-rule="evenodd" d="M0.76001 5.06009C0.76001 4.90096 0.823224 4.74835 0.935746 4.63583C1.04827 4.5233 1.20088 4.46009 1.36001 4.46009H9.87041L6.54401 1.29209C6.48453 1.23814 6.43649 1.1728 6.40273 1.09994C6.36897 1.02709 6.35018 0.948195 6.34747 0.867942C6.34475 0.787689 6.35818 0.707708 6.38695 0.632739C6.41571 0.557769 6.45923 0.489337 6.51493 0.431496C6.57063 0.373655 6.63737 0.327583 6.7112 0.296009C6.78503 0.264436 6.86445 0.248003 6.94475 0.247685C7.02505 0.247368 7.10459 0.263171 7.17867 0.294159C7.25275 0.325148 7.31986 0.370691 7.37601 0.428089L11.776 4.62809C11.8341 4.68406 11.8803 4.75116 11.9118 4.82539C11.9434 4.89961 11.9596 4.97944 11.9596 5.06009C11.9596 5.14074 11.9434 5.22056 11.9118 5.29479C11.8803 5.36902 11.8341 5.43612 11.776 5.49209L7.37601 9.69209C7.31986 9.74949 7.25275 9.79503 7.17867 9.82602C7.10459 9.85701 7.02505 9.87281 6.94475 9.87249C6.86445 9.87218 6.78503 9.85574 6.7112 9.82417C6.63737 9.7926 6.57063 9.74652 6.51493 9.68868C6.45923 9.63084 6.41571 9.56241 6.38695 9.48744C6.35818 9.41247 6.34475 9.33249 6.34747 9.25224C6.35018 9.17198 6.36897 9.09309 6.40273 9.02023C6.43649 8.94738 6.48453 8.88204 6.54401 8.82809L9.87041 5.66009H1.36001C1.20088 5.66009 1.04827 5.59687 0.935746 5.48435C0.823224 5.37183 0.76001 5.21922 0.76001 5.06009Z" fill="white"/>
</svg>
