<svg width="21" height="20" viewBox="0 0 21 20" fill="none" xmlns="http://www.w3.org/2000/svg">
<g clip-path="url(#clip0_254_48)">
<path d="M2.85498 2.5H4.00998C4.43498 2.5 4.80581 2.78583 4.91581 3.19583L5.23498 4.39333M5.23498 4.39333C9.87718 4.26324 14.5149 4.77929 19.015 5.92667C18.3283 7.97167 17.5125 9.95833 16.5783 11.875H7.22998M5.23498 4.39333L7.22998 11.875M7.22998 11.875C6.56694 11.875 5.93105 12.1384 5.46221 12.6072C4.99337 13.0761 4.72998 13.712 4.72998 14.375H17.855M5.97998 16.875C5.97998 17.0408 5.91413 17.1997 5.79692 17.3169C5.67971 17.4342 5.52074 17.5 5.35498 17.5C5.18922 17.5 5.03025 17.4342 4.91304 17.3169C4.79583 17.1997 4.72998 17.0408 4.72998 16.875C4.72998 16.7092 4.79583 16.5503 4.91304 16.4331C5.03025 16.3158 5.18922 16.25 5.35498 16.25C5.52074 16.25 5.67971 16.3158 5.79692 16.4331C5.91413 16.5503 5.97998 16.7092 5.97998 16.875ZM16.605 16.875C16.605 17.0408 16.5391 17.1997 16.4219 17.3169C16.3047 17.4342 16.1457 17.5 15.98 17.5C15.8142 17.5 15.6552 17.4342 15.538 17.3169C15.4208 17.1997 15.355 17.0408 15.355 16.875C15.355 16.7092 15.4208 16.5503 15.538 16.4331C15.6552 16.3158 15.8142 16.25 15.98 16.25C16.1457 16.25 16.3047 16.3158 16.4219 16.4331C16.5391 16.5503 16.605 16.7092 16.605 16.875Z" stroke="#002C58" stroke-width="1.25" stroke-linecap="round" stroke-linejoin="round"/>
</g>
<defs>
<clipPath id="clip0_254_48">
<rect width="20" height="20" fill="white" transform="translate(0.97998)"/>
</clipPath>
</defs>
</svg>
