<svg width="59" height="59" viewBox="0 0 59 59" fill="none" xmlns="http://www.w3.org/2000/svg">
<g clip-path="url(#clip0_5_3149)">
<path d="M29.5 0C13.2077 0 0 13.2077 0 29.5C0 45.7932 13.2077 59 29.5 59C45.7932 59 59 45.7932 59 29.5C59 13.2077 45.7932 0 29.5 0ZM29.5 55.3706C15.2672 55.3706 3.6875 43.7328 3.6875 29.4999C3.6875 15.2671 15.2672 3.68738 29.5 3.68738C43.7328 3.68738 55.3125 15.2671 55.3125 29.4999C55.3125 43.7327 43.7328 55.3706 29.5 55.3706ZM41.2733 18.7058L23.965 36.1227L16.1706 28.3283C15.4506 27.6083 14.2835 27.6083 13.5626 28.3283C12.8426 29.0483 12.8426 30.2154 13.5626 30.9354L22.6882 40.0619C23.4082 40.781 24.5753 40.781 25.2962 40.0619C25.3792 39.979 25.4502 39.8885 25.5147 39.7946L43.8822 21.3137C44.6012 20.5937 44.6012 19.4266 43.8822 18.7058C43.1613 17.9858 41.9942 17.9858 41.2733 18.7058Z" fill="#6CFA15"/>
</g>
<defs>
<clipPath id="clip0_5_3149">
<rect width="59" height="59" fill="white"/>
</clipPath>
</defs>
</svg>
